<?xml version="1.0" encoding="utf-8"?>
<!-- Generator: Adobe Illustrator 21.1.0, SVG Export Plug-In . SVG Version: 6.00 Build 0)  -->
<svg version="1.1" id="Livello_1" xmlns="http://www.w3.org/2000/svg" xmlns:xlink="http://www.w3.org/1999/xlink" x="0px" y="0px"
	 viewBox="0 0 328.7427673 122.365448" enable-background="new 0 0 328.7427673 122.365448" xml:space="preserve">
<g>
	<defs>
		<path id="SVGID_1_" d="M22.577095,2.5417175c-1.2450027,2.1669922-0.4220047,4.947998,1.6719971,6.3139954
			c2.310997,1.5039978,4.5469971,2.9660034,6.6279984,4.4550171c0.8880005,0.6359863,0.4449997,2.0299988-0.6469955,2.0299988
			h-2.3710022c-2.0299988,0-3.8420029,1.4790039-4.0360031,3.4949951c-0.2189941,2.3129883,1.5979996,4.2569885,3.8690033,4.2569885
			h10.75c1.5059967,0,2.8969955,0.8680115,3.4929962,2.2490234c0.0460052,0.1099854,0.0920029,0.21698,0.1380005,0.3239746
			c1.0180054,2.4920044-0.8730011,5.2130127-3.5719986,5.2130127h-7.6459961c-2.0270004,0-3.840004,1.480011-4.0340042,3.493988
			c-0.2200012,2.3130188,1.5960007,4.2590027,3.8670044,4.2590027h5.5499954c3.1440048,0,5.0029984,3.6119995,3.0739975,6.0899963
			c-0.034996,0.0429993-0.0679932,0.0890198-0.1019974,0.132019c-0.7149963,0.9049988-1.8239975,1.4140015-2.9779968,1.4140015
			H24.7110901c-2.0309982,0-3.8440018,1.4809875-4.034996,3.4920044c-0.2220001,2.3109741,1.5950012,4.2599792,3.8679962,4.2599792
			h3.951004c-1.4309998,0.9630127-2.9190063,1.934021-4.4340057,2.9230042
			c-0.0659943,0.0429993-0.1240005,0.0899963-0.185997,0.1329956c-6.4940033,4.2360229-13.4660034,8.8130188-18.098999,15.2210083
			c-0.5370026,0.4580078-0.9400024,1.0549927-1.1640015,1.7399902c-2.5530014,4.1010132-4.151001,8.927002-4.151001,14.8220215
			c0,16.5079956,12.538002,24.6759949,23.5999985,31.8819885c2.1940002,1.427002,5.1460037,0.7749939,6.5240021-1.4660034
			c1.340004-2.1719971,0.5449982-5.0379944-1.5970001-6.4329834c-0.8359985-0.5480042-1.663002-1.0820007-2.4759979-1.6210022
			c-0.5390015-0.355011-0.2870026-1.1889954,0.3619995-1.1889954h1.6360016c2.0309982,0,3.8419952-1.4820251,4.034996-3.4960022
			c0.2210007-2.3099976-1.5950012-4.2539978-3.8669968-4.2539978H16.9910889c-1.1559982,0-2.2649994-0.5120239-2.9789963-1.4160156
			c-0.0350037-0.0450134-0.0699997-0.0929871-0.1030045-0.131012c-1.9279938-2.4799805-0.0709991-6.0939941,3.076004-6.0939941
			h5.3799973c2.0289993,0,3.840004-1.4790039,4.0340042-3.4979858c0.2210007-2.3099976-1.5950012-4.2550049-3.8660049-4.2550049
			h-7.8139954c-2.6990051,0-4.5880051-2.7200012-3.5690002-5.2090149c0.0459976-0.1129761,0.0919952-0.2209778,0.1360016-0.3289795
			c0.5949936-1.375,1.987999-2.2489929,3.4929962-2.2489929h10.5820007c2.0299988,0,3.8420029-1.4770203,4.0360031-3.4940186
			c0.2210007-2.3110046-1.5950012-4.2550049-3.8680038-4.2550049h-3.6679993c-0.723999,0-1.0329971-0.92099-0.4499969-1.3500061
			c2.3899994-1.7639771,5.0139999-3.4759827,7.7350006-5.25c0.0619965-0.0419922,0.1199951-0.0879822,0.1799927-0.1309814
			c11.0210037-7.178009,23.4339981-15.3450012,23.4339981-31.7740173c0-5.8919983-1.5989914-10.7179871-4.1489944-14.8190002
			c-0.2249985-0.6849976-0.6279984-1.2829895-1.1660004-1.742981C42.7730942,9.8177185,35.7170944,5.2187195,29.1770935,0.955719
			c-0.7870026-0.5130005-1.6710052-0.7579956-2.5470047-0.7579956C25.0230942,0.1977234,23.4500885,1.0257263,22.577095,2.5417175"
			/>
	</defs>
	<clipPath id="SVGID_2_">
		<use xlink:href="#SVGID_1_"  overflow="visible"/>
	</clipPath>
	
		<linearGradient id="SVGID_3_" gradientUnits="userSpaceOnUse" x1="-76.6529083" y1="426.2797241" x2="-75.6529083" y2="426.2797241" gradientTransform="matrix(0.4152632 -109.8490372 -109.8490372 -0.4152632 46884.6445313 -8125.3671875)">
		<stop  offset="0" style="stop-color:#4D8CCA"/>
		<stop  offset="0.999708" style="stop-color:#9FC63B"/>
		<stop  offset="1" style="stop-color:#9FC63B"/>
	</linearGradient>
	<polygon clip-path="url(#SVGID_2_)" fill="url(#SVGID_3_)" points="0,122.1659851 0.4618225,0 53.2211456,0.1994629 
		52.7593231,122.365448 	"/>
</g>
<g>
	<path fill="#4D8CCA" d="M48.0996933,86.7957153H34.5126877c-2.1469955,0-3.8849945,1.7400208-3.8849945,3.8840027
		c0,2.1470032,1.737999,3.8880005,3.8849945,3.8880005h13.5870056c2.1429977,0,3.8839951-1.7409973,3.8839951-3.8880005
		C51.9836884,88.5357361,50.242691,86.7957153,48.0996933,86.7957153"/>
	<path fill="#9FC63B" d="M12.9367905,53.8370361c2.1459961,0,3.8839951-1.7379761,3.8839951-3.8839722
		c0-2.1500244-1.737999-3.8880005-3.8839951-3.8880005c-2.1460037,0-3.887001,1.7379761-3.887001,3.8880005
		C9.0497894,52.0990601,10.7907867,53.8370361,12.9367905,53.8370361"/>
	<path fill="#9FC63B" d="M5.1229935,38.4085388h13.586998c2.1439972,0,3.8840027-1.7419739,3.8840027-3.8889771
		c0-2.1459961-1.7400055-3.8829956-3.8840027-3.8829956H5.1229935c-2.1470032,0-3.8840027,1.7369995-3.8840027,3.8829956
		C1.2389908,36.6665649,2.9759903,38.4085388,5.1229935,38.4085388"/>
	<path fill="#9FC63B" d="M11.4458923,23.131134h3.1279984c2.034996,0,3.6849976-1.6499939,3.6849976-3.6889954
		c0-2.0339966-1.6500015-3.6860046-3.6849976-3.6860046h-3.1279984c-2.0360031-0.0009766-3.6870041,1.651001-3.6870041,3.6860046
		C7.7588882,21.4811401,9.4098892,23.131134,11.4458923,23.131134"/>
	<path fill="#4D8CCA" d="M40.4818954,75.104126c0-2.1469727-1.7400055-3.8889771-3.8830032-3.8889771
		c-2.1480026,0-3.887001,1.7420044-3.887001,3.8889771c0,2.1420288,1.7389984,3.882019,3.887001,3.882019
		C38.74189,78.986145,40.4818954,77.2461548,40.4818954,75.104126"/>
	<path fill="#4D8CCA" d="M43.5325928,102.1165161h-3.3790054c-2.1989975,0-3.9830017,1.7820129-3.9830017,3.9830017
		c0,2.1990051,1.7840042,3.9860229,3.9830017,3.9860229h3.3790054c2.197998,0,3.9809952-1.7870178,3.9809952-3.9860229
		C47.513588,103.8985291,45.7305908,102.1165161,43.5325928,102.1165161"/>
	<path fill-rule="evenodd" clip-rule="evenodd" fill="#003A78" d="M89.8739624,25.9216976
		c0-6.4169922,0.3000031-12.5249939,0.3789978-19.2569885c3.0269928-0.1520081,5.3789978-0.303009,7.7960052-0.303009
		c13.3899994,0,22.9309998,9.7780151,22.9309998,23.6110229c0,14.6619892-7.2630005,23.6049824-21.727005,23.6049824
		c-2.8710022,0-5.822998-0.151001-9.3789978-0.6170082V25.9216976 M77.8399658,56.6287003
		c3.7839966,0,7.4899902-0.3029785,11.2789917-0.3029785c3.7070007,0,7.4909973,0.3029785,11.2740021,0.3029785
		c21.2640076,0,31.1040039-9.4689941,31.1040039-26.9639912c0-17.1889954-12.5619965-26.3590088-33.227005-26.3590088
		c-3.5559998,0-7.1119995,0.3080139-10.5950012,0.3080139c-3.5559998,0-7.0350037-0.3080139-10.5970001-0.3080139v1.3740234
		c2.8000031,0.7630005,3.9389954,2.9889832,3.9389954,6.1879883c0,3.7399902,0.7570038,9.7080078,0.7570038,16.4219971v22.2380085
		c0,3.2860069-0.8339996,4.6610069-3.9339905,5.4289856V56.6287003z"/>
	<path fill-rule="evenodd" clip-rule="evenodd" fill="#003A78" d="M143.7973633,24.2330074
		c-2.269989,1.5320129-6.2819977,2.9790039-9.7599945,3.8210144v1.5310059
		c1.8159943,0.302002,2.572998,0.8399963,3.1719971,2.3719788c0.6049957,1.5920124,1.0610046,4.6560078,1.0610046,10.1589985
		v9.4649963c0,2.6020203-0.8269958,2.9830017-2.6430054,3.4439964v1.5260048
		c2.0379944-0.067997,4.0820007-0.2309875,6.1340027-0.2309875c2.2649994,0,4.5330048,0.2309875,6.8000031,0.2309875v-1.5260048
		c-1.7389984-0.4609947-2.951004-0.8419762-2.951004-3.4439964V40.4280167c0-6.2669983-0.2929993-12.9809895-0.2929993-16.1950092
		H143.7973633 M137.4433746,15.2189999c0,2.2990112,1.9659882,3.8980103,4.1549988,3.8980103
		c2.1989899,0,4.1679993-1.598999,4.1679993-3.8980103c0-2.2939758-1.9690094-3.8929749-4.1679993-3.8929749
		C139.4093628,11.326025,137.4433746,12.925024,137.4433746,15.2189999"/>
	<path fill-rule="evenodd" clip-rule="evenodd" fill="#003A78" d="M167.707962,51.5136185
		c-1.2170105,0.7619934-2.7280121,1.2949791-5.0680084,1.2949791c-3.1829987,0-5.9060059-2.668972-5.9060059-6.1889915
		c0-4.8889771,3.6290131-6.7309875,7.1120148-6.7309875c1.3619995,0,2.8069916,0.2369995,3.6409912,0.3940125L167.707962,51.5136185
		 M154.5399628,32.8645973c1.8879852-2.8319683,3.7829895-4.0429974,7.4899902-4.0429974
		c5.1450043,0,5.4570007,4.5820026,5.4570007,8.7010212c-1.0679932,0-2.3509979-0.2250099-3.5569916-0.2250099
		c-6.8960114,0-14.5410004,3.1300087-14.5410004,11.2309914c0,5.6540184,5.0789948,8.8640137,10.2179871,8.8640137
		c3.32901,0,5.756012-1.82901,8.3230133-3.7420044c0.9109955,1.9129944,3.1779938,3.3649902,6.0569916,3.7420044
		l5.6789856-4.5840187l-1.1380005-1.1439781c-0.5289917,0.1520081-1.2079773,0.3089905-1.5899811,0.3089905
		c-1.6609955,0-2.2669983-0.9989967-2.2669983-4.5169983v-2.67099c0.0709991-4.3580017,0.298996-8.3300171,0.298996-11.0780067
		c0-7.6350079-5.7559967-9.4739971-12.4839935-9.4739971c-3.5570068,0-6.5850067,0.4660034-9.7640076,1.3739929v7.2569866
		H154.5399628z"/>
	<path fill="#003A78" d="M210.6930695,5.3697262c-4.53302-2.3719788-9.6850281-2.9839783-14.7530212-2.9839783
		c-9.618988,0-17.7139893,6.5019836-17.7139893,16.6600037c0,19.9409809,25.8089905,12.1429749,25.8089905,25.5889912
		c0,5.8909874-4.5390015,9.7109985-10.21698,9.7109985c-4.9220276,0-10.2130127-3.4450111-11.4300232-8.4880066h-2.7229919
		l0.7630005,8.1790161c2.4930115,1.6719933,8.5509949,3.5130005,13.4679871,3.5130005
		c8.928009,0,17.4869995-5.6549988,17.4869995-15.506012c0-20.7110004-25.815979-10.7760029-25.815979-26.8970051
		c0-5.3450012,4.6929932-9.5469971,9.8339844-9.5469971c5.684021,0,10.3730164,2.2950134,12.4240112,8.0939941h2.8680115V5.3697262"
		/>
	<path fill-rule="evenodd" clip-rule="evenodd" fill="#003A78" d="M222.1442413,40.8089066
		c0-7.0229797,2.348999-13.5189838,9.2400208-13.5189838c6.8840027,0,9.2229919,6.4960041,9.2229919,13.5189838
		c0,7.0350037-2.3389893,13.5320091-9.2229919,13.5320091C224.4932404,54.3409157,222.1442413,47.8439102,222.1442413,40.8089066
		 M213.9712677,40.8089066c0,7.1800232,5.1499939,16.5830078,17.4129944,16.5830078
		c12.2590027,0,17.4039917-9.4029846,17.4039917-16.5830078c0-7.1859741-5.144989-16.5759907-17.4039917-16.5759907
		C219.1212616,24.2329159,213.9712677,33.6229324,213.9712677,40.8089066"/>
	<path fill="#003A78" d="M273.6296692,25.8429012c-1.4400024-0.9979858-3.3280029-1.6099854-4.7730103-1.6099854
		c-3.0230103,0-5.8950195,3.8989868-7.4060059,6.2720032h-0.1570129l-0.2329712-6.4179993h-1.506012
		c-1.8890076,1.5319824-5.298996,3.5119934-9.0779877,4.2810059v1.6040039
		c2.4890137,0.6059875,3.4720154,1.526001,3.4720154,4.1209736c0,2.5200195,0.3839722,5.7290039,0.3839722,9.2520142v8.0889893
		c0,2.2990074-0.7559814,3.210022-2.2719727,3.5909996v1.5270119c2.0489807-0.0679932,4.0879669-0.2260132,6.1269684-0.2260132
		c2.1230164,0,4.2399902,0.15802,6.3619995,0.2260132v-1.5270119c-2.1220093-0.3809776-2.8819885-1.2919922-2.8819885-3.5909996
		v-6.7209778c0-3.3650246,0.5319824-6.1130066,0.5319824-7.7980042c0-2.4450073,1.9710083-6.4830036,5.151001-6.4830036
		c2.6440125,0,3.78302,1.2229919,4.7669983,2.5899982h1.5120239V25.8429012"/>
	<path fill-rule="evenodd" clip-rule="evenodd" fill="#003A78" d="M285.1147461,24.2330074
		c-2.2680054,1.5320129-6.2790222,2.9790039-9.7620239,3.8210144v1.5310059
		c1.8210144,0.302002,2.5730286,0.8399963,3.178009,2.3719788c0.6060181,1.5920124,1.0599976,4.6560078,1.0599976,10.1589985
		v9.4649963c0,2.6020203-0.8329773,2.9830017-2.6430054,3.4439964v1.5260048
		c2.0390015-0.067997,4.0760193-0.2309875,6.1260071-0.2309875c2.2669983,0,4.5410156,0.2309875,6.8080139,0.2309875v-1.5260048
		c-1.7449951-0.4609947-2.9490051-0.8419762-2.9490051-3.4439964V40.4280167c0-6.2669983-0.303009-12.9809895-0.303009-16.1950092
		H285.1147461 M278.7577515,15.2189999c0,2.2990112,1.9719849,3.8980103,4.1619873,3.8980103
		c2.1950073,0,4.1669922-1.598999,4.1669922-3.8980103c0-2.2939758-1.9719849-3.8929749-4.1669922-3.8929749
		C280.7297363,11.326025,278.7577515,12.925024,278.7577515,15.2189999"/>
	<path fill="#003A78" d="M291.3150635,29.4330196c2.2719727,0,3.3339844,1.3010254,3.3339844,3.5100117
		c0,2.446991,0.3710022,6.5700035,0.3710022,11.0029907v7.4890137c0,2.6019897-0.8980103,2.9110069-2.7940063,3.5889854v1.5270081
		c2.1230164,0,4.3130188-0.2259827,6.4349976-0.2259827c2.1940002,0,4.3099976,0.1590004,6.506012,0.2259827v-1.5270081
		c-2.04599-0.2239952-2.7940063-0.8359947-2.7940063-3.5889854v-6.2619934c0-5.9630127,0.1499939-10.2370033,0.1499939-13.1430092
		c0-2.8210125,4.8390198-3.5960064,6.3560181-3.5960064c5.3659973,0,6.1990051,5.6600056,6.1990051,9.7900105v13.2109985
		c0,2.6019897-0.6040039,3.1350098-2.7220154,3.5889854v1.5270081c2.4289856,0,4.7680054-0.2259827,7.1900024-0.2259827
		c1.8940125,0,3.7149963,0.1590004,5.6080017,0.2259827v-1.5270081c-2.1300049-0.6119957-2.7269897-1.1439781-2.7269897-3.5889854
		V35.2430496c0-6.5000019-2.960022-11.0100117-10.4480286-11.0100117c-3.1779785,0-6.5839844,1.9079895-9.2339783,3.6749878
		c0.0829773-1.302002,0.0829773-2.5249939,0.1479797-3.8199768h-1.5099792
		c-2.8720093,1.8329773-5.6020203,2.9789734-10.0679932,3.8199768V29.4330196"/>
	<polygon fill="#9FC63B" points="117.171196,81.3233261 101.4921951,105.3093491 100.4391861,105.3093491 84.6431961,81.3233261 
		84.6431961,117.7123337 81.4841843,117.7123337 81.4841843,76.7613449 85.2281876,76.7613449 100.9071884,100.6303329 
		116.4111862,76.7613449 120.2711868,76.7613449 120.2711868,117.7123337 117.171196,117.7123337 	"/>
	<polygon fill="none" stroke="#9FC63B" stroke-width="1.244" stroke-miterlimit="10" points="117.171196,81.3233261 
		101.4921951,105.3093491 100.4391861,105.3093491 84.6431961,81.3233261 84.6431961,117.7123337 81.4841843,117.7123337 
		81.4841843,76.7613449 85.2281876,76.7613449 100.9071884,100.6303329 116.4111862,76.7613449 120.2711868,76.7613449 
		120.2711868,117.7123337 117.171196,117.7123337 	"/>
	<path fill="#9FC63B" d="M126.2404861,103.3206406c0-9.1849976,6.5530014-15.0349731,14.6839981-15.0349731
		c8.1330109,0,14.6850128,5.8499756,14.6850128,15.0349731c0,9.1860046-6.552002,14.803009-14.6850128,14.803009
		C132.7934875,118.1236496,126.2404861,112.5066452,126.2404861,103.3206406 M152.8014984,103.3206406
		c0-7.4869995-5.3240051-12.3439941-11.8770142-12.3439941c-6.5519867,0-11.875,4.8569946-11.875,12.3439941
		c0,7.4900208,5.3230133,11.9940186,11.875,11.9940186C147.4774933,115.3146591,152.8014984,110.8106613,152.8014984,103.3206406"/>
	<path fill="none" stroke="#9FC63B" stroke-width="1.244" stroke-miterlimit="10" d="M126.2404861,103.3206406
		c0-9.1849976,6.5530014-15.0349731,14.6839981-15.0349731c8.1330109,0,14.6850128,5.8499756,14.6850128,15.0349731
		c0,9.1860046-6.552002,14.803009-14.6850128,14.803009C132.7934875,118.1236496,126.2404861,112.5066452,126.2404861,103.3206406z
		 M152.8014984,103.3206406c0-7.4869995-5.3240051-12.3439941-11.8770142-12.3439941
		c-6.5519867,0-11.875,4.8569946-11.875,12.3439941c0,7.4900208,5.3230133,11.9940186,11.875,11.9940186
		C147.4774933,115.3146591,152.8014984,110.8106613,152.8014984,103.3206406z"/>
	<rect x="161.0541992" y="76.7615585" fill="#9FC63B" width="2.8659973" height="40.9509888"/>
	
		<rect x="161.0542908" y="76.7617416" fill="none" stroke="#9FC63B" stroke-width="1.244" stroke-miterlimit="10" width="2.8660126" height="40.9509888"/>
	<path fill="#9FC63B" d="M169.1248016,103.262352c0-8.6579895,6.5529938-14.9179993,14.6849823-14.9179993
		c8.131012,0,15.3869934,4.9710083,14.2749939,16.2630005h-26.0329742
		c0.5839996,6.7890015,5.7910004,10.7070007,11.7579803,10.7070007c3.803009,0,8.2489929-1.5220032,10.4129944-4.3880005
		l2.0480042,1.6400146c-2.8079834,3.6860046-7.8389893,5.5570068-12.4609985,5.5570068
		C175.6777954,118.1233749,169.1248016,112.4483566,169.1248016,103.262352 M195.5108032,102.0933456
		c-0.0580139-7.13797-4.7390137-11.1169739-11.7010193-11.1169739c-5.96698,0-11.1149902,4.0369873-11.7579803,11.1169739
		H195.5108032z"/>
	<path fill="none" stroke="#9FC63B" stroke-width="1.244" stroke-miterlimit="10" d="M169.1248016,103.262352
		c0-8.6579895,6.5529938-14.9179993,14.6849823-14.9179993c8.131012,0,15.3869934,4.9710083,14.2749939,16.2630005h-26.0329742
		c0.5839996,6.7890015,5.7910004,10.7070007,11.7579803,10.7070007c3.803009,0,8.2489929-1.5220032,10.4129944-4.3880005
		l2.0480042,1.6400146c-2.8079834,3.6860046-7.8389893,5.5570068-12.4609985,5.5570068
		C175.6777954,118.1233749,169.1248016,112.4483566,169.1248016,103.262352z M195.5108032,102.0933456
		c-0.0580139-7.13797-4.7390137-11.1169739-11.7010193-11.1169739c-5.96698,0-11.1149902,4.0369873-11.7579803,11.1169739
		H195.5108032z"/>
	<path fill="#9FC63B" d="M228.0415039,113.6761398c-2.9250183,2.9250183-6.730011,4.3300171-10.5310059,4.3300171
		c-8.131012,0-14.8610229-5.6149902-14.8610229-14.7430115c0-9.1269836,6.4950256-14.7420044,14.8610229-14.7420044
		c3.8009949,0,7.6059875,1.4609985,10.5310059,4.3300171l-1.8720093,1.8119812
		c-2.3399963-2.3409729-5.5570068-3.4519958-8.6589966-3.4519958c-6.552002,0-12.0509949,4.2720032-12.0509949,12.052002
		c0,7.7810059,5.4989929,12.0509949,12.0509949,12.0509949c3.1019897,0,6.2599792-1.2289734,8.598999-3.5679932
		L228.0415039,113.6761398z"/>
	<path fill="none" stroke="#9FC63B" stroke-width="1.244" stroke-miterlimit="10" d="M228.0415039,113.6761398
		c-2.9250183,2.9250183-6.730011,4.3300171-10.5310059,4.3300171c-8.131012,0-14.8610229-5.6149902-14.8610229-14.7430115
		c0-9.1269836,6.4950256-14.7420044,14.8610229-14.7420044c3.8009949,0,7.6059875,1.4609985,10.5310059,4.3300171
		l-1.8720093,1.8119812c-2.3399963-2.3409729-5.5570068-3.4519958-8.6589966-3.4519958
		c-6.552002,0-12.0509949,4.2720032-12.0509949,12.052002c0,7.7810059,5.4989929,12.0509949,12.0509949,12.0509949
		c3.1019897,0,6.2599792-1.2289734,8.598999-3.5679932L228.0415039,113.6761398z"/>
	<path fill="#9FC63B" d="M256.0061035,117.7123337v-5.2049866c-2.2230225,3.9779968-6.2620239,5.6159973-10.2960205,5.6740112
		c-7.723999,0-13.0480042-4.7380066-13.0480042-12.756012V88.7533493h2.8680115v16.6140137
		c0,6.5529785,4.0360107,10.0639954,10.2969971,10.0049744c5.9679871-0.0579834,10.1210022-4.5619812,10.1210022-10.5299988
		V88.7533493h2.8680115v28.9589844H256.0061035z"/>
	<path fill="none" stroke="#9FC63B" stroke-width="1.244" stroke-miterlimit="10" d="M256.0061035,117.7123337v-5.2049866
		c-2.2230225,3.9779968-6.2620239,5.6159973-10.2960205,5.6740112c-7.723999,0-13.0480042-4.7380066-13.0480042-12.756012
		V88.7533493h2.8680115v16.6140137c0,6.5529785,4.0360107,10.0639954,10.2969971,10.0049744
		c5.9679871-0.0579834,10.1210022-4.5619812,10.1210022-10.5299988V88.7533493h2.8680115v28.9589844H256.0061035z"/>
	<rect x="265.1942139" y="76.7615585" fill="#9FC63B" width="2.8649902" height="40.9509888"/>
	
		<rect x="265.1940918" y="76.7617416" fill="none" stroke="#9FC63B" stroke-width="1.244" stroke-miterlimit="10" width="2.8650208" height="40.9509888"/>
	<path fill="#9FC63B" d="M302.691864,88.8116379v28.901001h-2.8659973v-6.1419983
		c-2.8079834,4.506012-7.1369934,6.6109924-11.8179932,6.6109924c-8.0740051,0-14.6830139-6.0859985-14.6830139-14.9190063
		c0-8.8349915,6.6090088-14.8009949,14.6830139-14.8009949c4.6809998,0,9.4190063,2.1640015,11.8179932,6.6690063v-6.3190002
		H302.691864z M276.1908875,103.2626266c0,7.2550049,5.2649841,12.1100159,11.8169861,12.1100159
		c16.0880127,0,16.0880127-24.1600037,0-24.1600037C281.4558716,91.2126389,276.1908875,96.0096359,276.1908875,103.2626266"/>
	<path fill="none" stroke="#9FC63B" stroke-width="1.244" stroke-miterlimit="10" d="M302.691864,88.8116379v28.901001h-2.8659973
		v-6.1419983c-2.8079834,4.506012-7.1369934,6.6109924-11.8179932,6.6109924
		c-8.0740051,0-14.6830139-6.0859985-14.6830139-14.9190063c0-8.8349915,6.6090088-14.8009949,14.6830139-14.8009949
		c4.6809998,0,9.4190063,2.1640015,11.8179932,6.6690063v-6.3190002H302.691864z M276.1908875,103.2626266
		c0,7.2550049,5.2649841,12.1100159,11.8169861,12.1100159c16.0880127,0,16.0880127-24.1600037,0-24.1600037
		C281.4558716,91.2126389,276.1908875,96.0096359,276.1908875,103.2626266z"/>
	<path fill="#9FC63B" d="M311.9972839,88.8117294l0.117981,5.1500244c1.8139954-3.9200134,5.9060059-5.4410095,9.5920105-5.4410095
		c2.1669922-0.0589905,4.2729797,0.5249939,6.2030029,1.6950073l-1.2870178,2.3389893
		c-1.5220032-0.9349976-3.2189941-1.3429871-4.9159851-1.3429871c-5.381012,0.0579834-9.5339966,4.3880005-9.5339966,9.651001
		v16.8499756h-2.8680115v-28.901001H311.9972839z"/>
	<path fill="none" stroke="#9FC63B" stroke-width="1.244" stroke-miterlimit="10" d="M311.9972839,88.8117294l0.117981,5.1500244
		c1.8139954-3.9200134,5.9060059-5.4410095,9.5920105-5.4410095c2.1669922-0.0589905,4.2729797,0.5249939,6.2030029,1.6950073
		l-1.2870178,2.3389893c-1.5220032-0.9349976-3.2189941-1.3429871-4.9159851-1.3429871
		c-5.381012,0.0579834-9.5339966,4.3880005-9.5339966,9.651001v16.8499756h-2.8680115v-28.901001H311.9972839z"/>
</g>
</svg>
